HIERARCHY
ROOT hip
{
  OFFSET 0 0 0
  CHANNELS 6 Xposition Yposition Zposition Zrotation Yrotation Xrotation
  JOINT abdomen
  {
    OFFSET 0 20.6881 -0.73152
    CHANNELS 3 Zrotation Xrotation Yrotation
    JOINT chest
    {
      OFFSET 0 11.7043 -0.48768
      CHANNELS 3 Zrotation Xrotation Yrotation
      JOINT neck
      {
        OFFSET 0 22.1894 -2.19456
        CHANNELS 3 Zrotation Xrotation Yrotation
        JOINT head
        {
          OFFSET -0.24384 7.07133 1.2192
          CHANNELS 3 Zrotation Xrotation Yrotation
          JOINT leftEye
          {
            OFFSET 4.14528 8.04674 8.04672
            CHANNELS 3 Zrotation Xrotation Yrotation
            End Site
            {
              OFFSET 1 0 0
            }
          }
          JOINT rightEye
          {
            OFFSET -3.6576 8.04674 8.04672
            CHANNELS 3 Zrotation Xrotation Yrotation
            End Site
            {
              OFFSET 1 0 0
            }
          }
        }
      }
      JOINT rCollar
      {
        OFFSET -2.68224 19.2634 -4.8768
        CHANNELS 3 Zrotation Xrotation Yrotation
        JOINT rShldr
        {
          OFFSET -8.77824 -1.95073 1.46304
          CHANNELS 3 Zrotation Xrotation Yrotation
          JOINT rForeArm
          {
            OFFSET -28.1742 -1.7115 0.48768
            CHANNELS 3 Zrotation Xrotation Yrotation
            JOINT rHand
            {
              OFFSET -22.5879 0.773209 7.07136
              CHANNELS 3 Zrotation Xrotation Yrotation
              JOINT rThumb1
              {
                OFFSET -1.2192 -0.487915 3.41376
                CHANNELS 3 Zrotation Xrotation Yrotation
                JOINT rThumb2
                {
                  OFFSET -3.37035 -0.52449 3.41376
                  CHANNELS 3 Zrotation Xrotation Yrotation
                  End Site
                  {
                    OFFSET -1.78271 -1.18214 1.43049
                  }
                }
              }
              JOINT rIndex1
              {
                OFFSET -7.75947 0.938293 5.60832
                CHANNELS 3 Zrotation Xrotation Yrotation
                JOINT rIndex2
                {
                  OFFSET -2.54057 -0.884171 1.56538
                  CHANNELS 3 Zrotation Xrotation Yrotation
                  End Site
                  {
                    OFFSET -1.62519 -0.234802 1.16502
                  }
                }
              }
              JOINT rMid1
              {
                OFFSET -8.24714 1.18213 3.41376
                CHANNELS 3 Zrotation Xrotation Yrotation
                JOINT rMid2
                {
                  OFFSET -3.10165 -0.590103 1.0647
                  CHANNELS 3 Zrotation Xrotation Yrotation
                  End Site
                  {
                    OFFSET -2.48547 -0.328903 0.83742
                  }
                }
              }
              JOINT rRing1
              {
                OFFSET -8.82822 0.546677 1.51678
                CHANNELS 3 Zrotation Xrotation Yrotation
                JOINT rRing2
                {
                  OFFSET -2.60934 -0.819778 -0.0198488
                  CHANNELS 3 Zrotation Xrotation Yrotation
                  End Site
                  {
                    OFFSET -2.33842 -0.294052 0.168128
                  }
                }
              }
              JOINT rPinky1
              {
                OFFSET -8.27202 -0.0477905 -0.4584
                CHANNELS 3 Zrotation Xrotation Yrotation
                JOINT rPinky2
                {
                  OFFSET -1.82734 -0.647385 -0.700984
                  CHANNELS 3 Zrotation Xrotation Yrotation
                  End Site
                  {
                    OFFSET -1.69225 -0.51767 -0.607171
                  }
                }
              }
            }
          }
        }
      }
      JOINT lCollar
      {
        OFFSET 2.68224 19.2634 -4.8768
        CHANNELS 3 Zrotation Xrotation Yrotation
        JOINT lShldr
        {
          OFFSET 8.77824 -1.95073 1.46304
          CHANNELS 3 Zrotation Xrotation Yrotation
          JOINT lForeArm
          {
            OFFSET 28.1742 -1.7115 0.48768
            CHANNELS 3 Zrotation Xrotation Yrotation
            JOINT lHand
            {
              OFFSET 22.5879 0.773209 7.07136
              CHANNELS 3 Zrotation Xrotation Yrotation
              JOINT lThumb1
              {
                OFFSET 1.2192 -0.487915 3.41376
                CHANNELS 3 Zrotation Xrotation Yrotation
                JOINT lThumb2
                {
                  OFFSET 3.37035 -0.52449 3.41376
                  CHANNELS 3 Zrotation Xrotation Yrotation
                  End Site
                  {
                    OFFSET 1.78271 -1.18214 1.43049
                  }
                }
              }
              JOINT lIndex1
              {
                OFFSET 7.75947 0.938293 5.60832
                CHANNELS 3 Zrotation Xrotation Yrotation
                JOINT lIndex2
                {
                  OFFSET 2.54057 -0.884171 1.56538
                  CHANNELS 3 Zrotation Xrotation Yrotation
                  End Site
                  {
                    OFFSET 1.62519 -0.234802 1.16502
                  }
                }
              }
              JOINT lMid1
              {
                OFFSET 8.24714 1.18213 3.41376
                CHANNELS 3 Zrotation Xrotation Yrotation
                JOINT lMid2
                {
                  OFFSET 3.10165 -0.590103 1.0647
                  CHANNELS 3 Zrotation Xrotation Yrotation
                  End Site
                  {
                    OFFSET 2.48547 -0.328903 0.83742
                  }
                }
              }
              JOINT lRing1
              {
                OFFSET 8.82822 0.546677 1.51678
                CHANNELS 3 Zrotation Xrotation Yrotation
                JOINT lRing2
                {
                  OFFSET 2.60934 -0.819778 -0.0198488
                  CHANNELS 3 Zrotation Xrotation Yrotation
                  End Site
                  {
                    OFFSET 2.33842 -0.294052 0.168128
                  }
                }
              }
              JOINT lPinky1
              {
                OFFSET 8.27202 -0.0477905 -0.4584
                CHANNELS 3 Zrotation Xrotation Yrotation
                JOINT lPinky2
                {
                  OFFSET 1.82734 -0.647385 -0.700984
                  CHANNELS 3 Zrotation Xrotation Yrotation
                  End Site
                  {
                    OFFSET 1.69225 -0.51767 -0.607171
                  }
                }
              }
            }
          }
        }
      }
    }
  }
  JOINT rButtock
  {
    OFFSET -8.77824 4.35084 1.2192
    CHANNELS 3 Zrotation Xrotation Yrotation
    JOINT rThigh
    {
      OFFSET 0 -1.70687 -2.19456
      CHANNELS 3 Zrotation Xrotation Yrotation
      JOINT rShin
      {
        OFFSET 0 -36.8199 0.73152
        CHANNELS 3 Zrotation Xrotation Yrotation
        JOINT rFoot
        {
          OFFSET 0.73152 -45.1104 -5.12064
          CHANNELS 3 Zrotation Xrotation Yrotation
          End Site
          {
            OFFSET -1.1221 -3.69964 12.103
          }
        }
      }
    }
  }
  JOINT lButtock
  {
    OFFSET 8.77824 4.35084 1.2192
    CHANNELS 3 Zrotation Xrotation Yrotation
    JOINT lThigh
    {
      OFFSET 0 -1.70687 -2.19456
      CHANNELS 3 Zrotation Xrotation Yrotation
      JOINT lShin
      {
        OFFSET 0 -36.8199 0.73152
        CHANNELS 3 Zrotation Xrotation Yrotation
        JOINT lFoot
        {
          OFFSET -0.73152 -45.1104 -5.12064
          CHANNELS 3 Zrotation Xrotation Yrotation
          End Site
          {
            OFFSET 1.1221 -3.69964 12.103
          }
        }
      }
    }
  }
}
MOTION
Frames:	8
Frame Time:	0.00833333
19.4264 75.0913 46.415 -177.443 -18.9009 -156.117 -7.96238 53.0735 13.3655 4.57215 -2.32298 -0.43811 -4.03082 -14.7931 -5.12418 10.9754 6.974 -9.06258 -0.0 0.0 0.0 -0.0 0.0 0.0 -3.72113e-13 3.16447e-13 -3.05184e-13 61.0678 38.8605 33.0866 -25.2081 -21.5501 53.6969 -1.28787 30.4226 4.73396 9.45792e-10 -1.31525e-09 2.47875e-09 1.6898e-09 -2.23961e-09 4.26306e-09 9.45796e-10 -1.31525e-09 2.47874e-09 7.73091 5.47488 0.417314 9.45794e-10 -1.31525e-09 2.47875e-09 2.90554 0.965183 0.102902 9.45802e-10 -1.31525e-09 2.47875e-09 10.2786 0.731801 0.0259123 9.45788e-10 -1.31525e-09 2.47876e-09 2.22167 -0.733487 -0.20892 -3.72112e-13 3.16484e-13 -3.05433e-13 -26.3715 54.3761 -56.4258 26.9 -26.0097 -60.896 0.870401 25.5048 -3.8445 3.70075e-09 1.74581e-09 -5.02633e-10 6.38012e-09 2.95088e-09 -9.30013e-10 3.70075e-09 1.74578e-09 -5.0262e-10 -7.73091 5.47488 -0.417314 3.70076e-09 1.74581e-09 -5.02626e-10 -2.90554 0.965183 -0.102902 3.70075e-09 1.74581e-09 -5.0263e-10 -10.2786 0.731801 -0.0259123 3.70076e-09 1.74581e-09 -5.02639e-10 -2.22167 -0.733487 0.20892 -2.03217e-16 0.0 -3.88251e-19 22.1865 -58.029 17.4132 -0.573961 52.3834 1.50738 -5.82161 -10.2308 -18.7912 2.03217e-16 0.0 3.88251e-19 -9.9607 -72.0802 -21.3262 0.931456 56.3832 -1.04491 -0.407381 8.08495 32.074
19.2116 75.2284 45.5883 -177.622 -19.1876 -156.466 -7.66212 53.3999 12.8442 4.47284 -2.36286 -0.539937 -4.09967 -14.8203 -5.08445 11.0718 7.04326 -8.96297 -0.0 0.0 0.0 -0.0 0.0 0.0 -3.86313e-13 2.62993e-13 -2.29674e-13 61.0435 38.8873 33.261 -25.12 -21.3558 53.3791 -1.29304 30.4763 4.74416 7.98154e-10 -1.35005e-09 2.45285e-09 1.43425e-09 -2.30156e-09 4.22184e-09 7.98157e-10 -1.35005e-09 2.45285e-09 7.73091 5.47488 0.417314 7.98155e-10 -1.35005e-09 2.45285e-09 2.90554 0.965183 0.102902 7.98163e-10 -1.35005e-09 2.45285e-09 10.2786 0.731801 0.0259123 7.98149e-10 -1.35005e-09 2.45286e-09 2.22167 -0.733487 -0.20892 -3.86287e-13 2.63017e-13 -2.29955e-13 -26.9225 54.3281 -55.9754 26.8758 -25.9316 -60.7697 0.88696 25.727 -3.88296 4.50782e-09 1.91394e-09 -3.81534e-10 7.77588e-09 3.22375e-09 -7.38963e-10 4.50782e-09 1.91391e-09 -3.81522e-10 -7.73091 5.47488 -0.417314 4.50782e-09 1.91394e-09 -3.81528e-10 -2.90554 0.965183 -0.102902 4.50782e-09 1.91394e-09 -3.81532e-10 -10.2786 0.731801 -0.0259123 4.50783e-09 1.91393e-09 -3.81542e-10 -2.22167 -0.733487 0.20892 -2.03217e-16 0.0 -3.88251e-19 21.2558 -57.3379 16.4195 -0.571076 52.3511 1.5235 -6.03079 -10.6102 -18.9917 2.03217e-16 0.0 3.88251e-19 -11.0562 -71.7972 -22.3016 0.811154 53.8763 -0.917028 -0.590122 8.24949 31.3735
19.0105 75.3258 44.8205 -177.777 -19.4478 -156.649 -7.32332 53.8549 12.2408 4.39326 -2.4404 -0.664029 -4.18707 -14.8769 -5.03253 11.1809 7.15433 -8.83332 -0.0 0.0 0.0 -0.0 0.0 0.0 -3.01572e-13 1.83976e-13 -1.39385e-13 60.9847 38.9662 33.4587 -25.0373 -21.1762 53.0814 -1.29859 30.534 4.75511 7.28162e-10 -1.19502e-09 2.11723e-09 1.30615e-09 -2.03882e-09 3.64332e-09 7.28165e-10 -1.19502e-09 2.11723e-09 7.73091 5.47488 0.417314 7.28163e-10 -1.19502e-09 2.11724e-09 2.90554 0.965183 0.102902 7.2817e-10 -1.19502e-09 2.11724e-09 10.2786 0.731801 0.0259123 7.28156e-10 -1.19502e-09 2.11725e-09 2.22167 -0.733487 -0.20892 -3.01527e-13 1.83976e-13 -1.39687e-13 -27.5653 54.2221 -55.4587 26.8371 -25.8085 -60.5738 0.905571 25.9733 -3.92577 4.53468e-09 1.85183e-09 -1.19686e-10 7.82786e-09 3.11339e-09 -2.91369e-10 4.53467e-09 1.85181e-09 -1.19676e-10 -7.73091 5.47488 -0.417314 4.53468e-09 1.85183e-09 -1.19681e-10 -2.90554 0.965183 -0.102902 4.53467e-09 1.85183e-09 -1.19685e-10 -10.2786 0.731801 -0.0259123 4.53468e-09 1.85183e-09 -1.19696e-10 -2.22167 -0.733487 0.20892 -2.03217e-16 0.0 -3.88251e-19 20.2624 -56.5353 15.342 -0.568023 52.2894 1.53418 -6.24131 -10.9795 -19.206 2.03217e-16 0.0 3.88251e-19 -12.0124 -71.3339 -23.136 0.706448 51.3279 -0.803443 -0.75443 8.40273 30.5086
18.8231 75.3982 44.0776 -177.916 -19.6712 -156.762 -6.96089 54.2164 11.6141 4.31651 -2.4879 -0.782662 -4.27097 -14.942 -4.98031 11.2814 7.27221 -8.70422 -0.0 0.0 0.0 -0.0 0.0 0.0 -1.91682e-13 9.52673e-14 -4.8109e-14 60.9377 39.0442 33.6361 -24.9622 -21.0151 52.8139 -1.30297 30.5792 4.76372 6.85531e-10 -9.65409e-10 1.66563e-09 1.22272e-09 -1.6481e-09 2.86361e-09 6.85533e-10 -9.65407e-10 1.66562e-09 7.73091 5.47488 0.417314 6.85531e-10 -9.6541e-10 1.66563e-09 2.90554 0.965183 0.102902 6.85537e-10 -9.65409e-10 1.66563e-09 10.2786 0.731801 0.0259123 6.85523e-10 -9.65408e-10 1.66565e-09 2.22167 -0.733487 -0.20892 -1.91626e-13 9.52441e-14 -4.84169e-14 -28.1761 54.0862 -54.9847 26.7899 -25.6602 -60.3385 0.922999 26.1997 -3.96534 4.21251e-09 1.69176e-09 1.71409e-10 7.27781e-09 2.84075e-09 2.13318e-10 4.2125e-09 1.69175e-09 1.71417e-10 -7.73091 5.47488 -0.417314 4.21251e-09 1.69176e-09 1.71413e-10 -2.90554 0.965183 -0.102902 4.21251e-09 1.69176e-09 1.71409e-10 -10.2786 0.731801 -0.0259123 4.21252e-09 1.69176e-09 1.71397e-10 -2.22167 -0.733487 0.20892 -2.03217e-16 0.0 -3.88251e-19 19.3755 -55.8377 14.3343 -0.567692 52.2845 1.54365 -6.44517 -11.3387 -19.4036 2.03217e-16 0.0 3.88251e-19 -12.903 -70.9273 -23.8945 0.620412 48.9022 -0.707647 -0.894763 8.54721 29.5387
18.6616 75.4104 43.4076 -178.016 -19.7991 -156.67 -6.60816 54.2624 11.0371 4.22631 -2.43771 -0.868085 -4.32943 -14.9949 -4.9397 11.3522 7.36189 -8.6063 -0.0 0.0 0.0 -0.0 0.0 0.0 -1.30435e-13 1.27409e-14 3.03644e-14 60.9498 39.0684 33.7484 -24.897 -20.8766 52.5867 -1.30458 30.5958 4.76687 6.19971e-10 -7.76472e-10 1.29176e-09 1.10119e-09 -1.32611e-09 2.21879e-09 6.19973e-10 -7.7647e-10 1.29175e-09 7.73091 5.47488 0.417314 6.19971e-10 -7.76473e-10 1.29177e-09 2.90554 0.965183 0.102902 6.19977e-10 -7.76472e-10 1.29177e-09 10.2786 0.731801 0.0259123 6.19963e-10 -7.76471e-10 1.29178e-09 2.22167 -0.733487 -0.20892 -1.30379e-13 1.27046e-14 3.00662e-14 -28.6345 53.9506 -54.6593 26.7405 -25.5073 -60.094 0.935751 26.3626 -3.99393 3.97252e-09 1.566e-09 3.80251e-10 6.86746e-09 2.62679e-09 5.75645e-10 3.97251e-09 1.566e-09 3.80258e-10 -7.73091 5.47488 -0.417314 3.97252e-09 1.566e-09 3.80254e-10 -2.90554 0.965183 -0.102902 3.97252e-09 1.566e-09 3.8025e-10 -10.2786 0.731801 -0.0259123 3.97253e-09 1.566e-09 3.80238e-10 -2.22167 -0.733487 0.20892 -2.03217e-16 0.0 -3.88251e-19 18.7255 -55.4673 13.5149 -0.573065 52.4223 1.55622 -6.63352 -11.6888 -19.5537 2.03217e-16 0.0 3.88251e-19 -13.8351 -70.8126 -24.6721 0.553794 46.7633 -0.631217 -1.00581 8.68595 28.5233
18.5148 75.3468 42.8334 -178.084 -19.858 -156.316 -6.27236 53.7993 10.5373 4.10396 -2.22419 -0.901836 -4.34637 -15.0265 -4.92365 11.379 7.40059 -8.57007 -0.0 0.0 0.0 -0.0 0.0 0.0 -1.54798e-13 -6.54325e-14 8.5604e-14 61.0538 38.9977 33.7686 -24.8429 -20.7624 52.4002 -1.30243 30.5736 4.76265 4.79709e-10 -6.74687e-10 1.07745e-09 8.53891e-10 -1.15228e-09 1.85145e-09 4.79711e-10 -6.74688e-10 1.07744e-09 7.73091 5.47488 0.417314 4.79709e-10 -6.74688e-10 1.07745e-09 2.90554 0.965183 0.102902 4.79715e-10 -6.7469e-10 1.07745e-09 10.2786 0.731801 0.0259123 4.79701e-10 -6.74686e-10 1.07746e-09 2.22167 -0.733487 -0.20892 -1.54763e-13 -6.54666e-14 8.53438e-14 -28.8548 53.8215 -54.5722 26.6862 -25.3414 -59.8251 0.942562 26.4487 -4.00909 3.97348e-09 1.52661e-09 4.60168e-10 6.86957e-09 2.55903e-09 7.12576e-10 3.97347e-09 1.52661e-09 4.60173e-10 -7.73091 5.47488 -0.417314 3.97348e-09 1.52661e-09 4.6017e-10 -2.90554 0.965183 -0.102902 3.97347e-09 1.52661e-09 4.60166e-10 -10.2786 0.731801 -0.0259123 3.97348e-09 1.52661e-09 4.60156e-10 -2.22167 -0.733487 0.20892 -2.03217e-16 0.0 -3.88251e-19 18.3553 -55.6143 12.9361 -0.585895 52.7372 1.57253 -6.80046 -12.0345 -19.6353 2.03217e-16 0.0 3.88251e-19 -14.9803 -71.1674 -25.6365 0.50209 44.9238 -0.570987 -1.07018 8.79446 27.431
18.3735 75.2226 42.3101 -178.131 -19.8882 -155.83 -5.96041 52.9905 10.0942 3.963 -1.8993 -0.902422 -4.33697 -15.0489 -4.92257 11.3761 7.41143 -8.57178 -0.0 0.0 0.0 -0.0 0.0 0.0 -2.19653e-13 -1.45698e-13 1.27216e-13 61.2179 38.8695 33.7256 -24.7993 -20.6716 52.249 -1.29757 30.5233 4.75309 3.04352e-10 -5.93339e-10 9.09314e-10 5.46834e-10 -1.01271e-09 1.56469e-09 3.04354e-10 -5.93344e-10 9.09299e-10 7.73091 5.47488 0.417314 3.04352e-10 -5.93339e-10 9.09316e-10 2.90554 0.965183 0.102902 3.04358e-10 -5.93346e-10 9.09315e-10 10.2786 0.731801 0.0259123 3.04345e-10 -5.93337e-10 9.09323e-10 2.22167 -0.733487 -0.20892 -2.19653e-13 -1.4572e-13 1.27017e-13 -28.9217 53.6854 -54.6444 26.6241 -25.1547 -59.5243 0.945173 26.482 -4.01494 3.97081e-09 1.49745e-09 4.76272e-10 6.86357e-09 2.51009e-09 7.40435e-10 3.97081e-09 1.49745e-09 4.76277e-10 -7.73091 5.47488 -0.417314 3.97081e-09 1.49745e-09 4.76274e-10 -2.90554 0.965183 -0.102902 3.97081e-09 1.49745e-09 4.7627e-10 -10.2786 0.731801 -0.0259123 3.97081e-09 1.49745e-09 4.76262e-10 -2.22167 -0.733487 0.20892 -2.03217e-16 0.0 -3.88251e-19 18.152 -56.1226 12.4933 -0.604618 53.1795 1.59081 -6.95024 -12.3744 -19.6687 2.03217e-16 0.0 3.88251e-19 -16.3168 -71.825 -26.7712 0.460166 43.3067 -0.521638 -1.09756 8.87708 26.2458
18.2317 75.0549 41.8004 -178.162 -19.9176 -155.317 -5.70243 52.1502 9.70511 3.83591 -1.57176 -0.897513 -4.32621 -15.0735 -4.91457 11.3661 7.42828 -8.56063 -0.0 0.0 0.0 -0.0 0.0 0.0 -2.75662e-13 -2.19106e-13 1.71465e-13 61.3931 38.7492 33.6584 -24.7667 -20.6039 52.1351 -1.29142 30.4595 4.74097 1.80688e-10 -4.77885e-10 6.88311e-10 3.27746e-10 -8.14086e-10 1.18534e-09 1.8069e-10 -4.77893e-10 6.88295e-10 7.73091 5.47488 0.417314 1.80688e-10 -4.77884e-10 6.88312e-10 2.90554 0.965183 0.102902 1.80694e-10 -4.77895e-10 6.88309e-10 10.2786 0.731801 0.0259123 1.80682e-10 -4.77882e-10 6.88312e-10 2.22167 -0.733487 -0.20892 -2.75697e-13 -2.19115e-13 1.71328e-13 -28.971 53.5432 -54.7275 26.5618 -24.9708 -59.2316 0.944511 26.4741 -4.01353 3.79072e-09 1.41848e-09 4.84743e-10 6.55118e-09 2.37859e-09 7.58812e-10 3.79071e-09 1.41848e-09 4.84748e-10 -7.73091 5.47488 -0.417314 3.79072e-09 1.41848e-09 4.84745e-10 -2.90554 0.965183 -0.102902 3.79071e-09 1.41848e-09 4.84741e-10 -10.2786 0.731801 -0.0259123 3.79072e-09 1.41848e-09 4.84735e-10 -2.22167 -0.733487 0.20892 -2.03217e-16 0.0 -3.88251e-19 18.0073 -56.6962 12.0654 -0.62737 53.7093 1.61183 -7.08939 -12.7002 -19.685 2.03217e-16 0.0 3.88251e-19 -17.6289 -72.5062 -27.8609 0.427293 41.9415 -0.481244 -1.12055 8.98289 25.0502
